# xmcd CD database file
#
# Track frame offsets:
#	150
#	14420
#	35818
#	57217
#	72044
#	86601
#	114510
#	130122
#	155837
#	173747
#	198938
#
# Disc length: 3073 seconds
#
# Revision: 0
# Processed by: cddbd v1.5.1PL0 Copyright (c) Steve Scherf et al.
# Submitted via: CDex 1.50
#
DISCID=910bff0b
DTITLE=Trilok Gurtu - Remembrance
DYEAR=1900
DGENRE=Jazz
TTITLE0=Sounds Of India
TTITLE1=Remembrance
TTITLE2=Our Heritage
TTITLE3=Brindavan Dance
TTITLE4=Street Song
TTITLE5=Witness To Marriage
TTITLE6=Eastern Journey
TTITLE7=Expression Of Love
TTITLE8=Worship
TTITLE9=Evening In India
TTITLE10=Greetings
EXTD=
EXTT0=
EXTT1=
EXTT2=
EXTT3=
EXTT4=
EXTT5=
EXTT6=
EXTT7=
EXTT8=
EXTT9=
EXTT10=
PLAYORDER=
